<svg xmlns="http://www.w3.org/2000/svg" viewBox="0 13.649999618530273 52.150001525878906 31.250001907348633" data-asc="0.898" width="52.150001525878906" height="31.250001907348633"><defs/><g fill="#000000"><g transform="translate(0, 0)"><path d="M22.10 44.90L35.25 13.65L49.95 13.65L52.15 44.90L42.10 44.90L41.90 39.95L34.05 39.95L32.10 44.90L22.10 44.90M32.70 15.80L12.30 13.65L33.60 13.65L32.70 15.80M30.65 20.60L10.25 18.45L31.55 18.45L30.65 20.60M28.65 25.45L8.20 23.25L29.55 23.25L28.65 25.45M37.15 32L41.15 32L41.15 23.25L40.65 23.25L37.15 32M26.60 30.25L6.15 28.05L27.55 28.05L26.60 30.25M24.60 35.05L4.10 32.85L25.50 32.85L24.60 35.05M22.55 39.85L2.05 37.65L23.50 37.65L22.55 39.85M20.50 44.70L0 42.50L21.45 42.50L20.50 44.70Z"/></g></g></svg>