<svg xmlns="http://www.w3.org/2000/svg" viewBox="0 18.450000762939453 232 54.40999984741211" data-asc="0.898" width="232" height="54.40999984741211"><defs/><g fill="#ffffff"><g transform="translate(0, 0)"><path d="M22.10 44.90L33.20 18.45L45.60 18.45L47.55 44.90L38.80 44.90L38.60 40.85L32.30 40.85L30.75 44.90L22.10 44.90M30.65 20.60L10.25 18.45L31.55 18.45L30.65 20.60M28.65 25.45L8.20 23.25L29.55 23.25L28.65 25.45M34.95 33.70L38.60 33.70L38.60 26.10L37.90 26.10L34.95 33.70M26.60 30.25L6.15 28.05L27.55 28.05L26.60 30.25M24.60 35.05L4.10 32.85L25.50 32.85L24.60 35.05M22.55 39.85L2.05 37.65L23.50 37.65L22.55 39.85M20.50 44.70L0 42.50L21.45 42.50L20.50 44.70ZM71.20 45.50Q66.05 45.50 64 43.98Q61.95 42.45 61.95 38.65Q61.95 37.50 62.10 36.20Q62.25 34.90 62.50 33.35L65.15 18.45L73.55 18.45L70.15 37.90L72.65 37.90Q73.90 37.90 74.47 37.60Q75.05 37.30 75.25 36L78.40 18.45L86.80 18.45L84.20 33.35Q83.40 37.90 82.05 40.57Q80.70 43.25 78.15 44.38Q75.60 45.50 71.20 45.50M63.20 20.70L42 18.45L63.55 18.45L63.20 20.70M62.35 25.50L41.15 23.25L62.75 23.25L62.35 25.50M61.50 30.30L40.30 28.05L61.90 28.05L61.50 30.30M60.65 35.10L39.45 32.85L61.05 32.85L60.65 35.10M60.50 39.90L39.30 37.65L60.45 37.65L60.45 38.65Q60.45 39 60.45 39.30Q60.45 39.60 60.50 39.90M62.40 44.75L41.20 42.50L60.95 42.50Q61.50 43.90 62.40 44.75ZM96.95 44.90L101.55 18.45L114.25 18.45Q117.05 18.45 118.63 19.30Q120.20 20.15 120.88 21.65Q121.55 23.15 121.55 25.05Q121.55 26.55 121.13 28.70Q120.70 30.85 119.58 32.88Q118.45 34.90 116.30 36.10L119.15 44.90L109.80 44.90L107.90 37.20L106.70 37.20L105.35 44.90L96.95 44.90M99.55 20.70L78.35 18.45L99.90 18.45L99.55 20.70M98.70 25.50L77.50 23.25L99.10 23.25L98.70 25.50M107.90 30.35L109.50 30.35Q110.50 30.35 111.22 30.07Q111.95 29.80 112.10 28.85L112.40 27.10Q112.40 27.00 112.42 26.92Q112.45 26.85 112.45 26.80Q112.45 26.10 111.72 25.92Q111 25.75 109.80 25.75L108.70 25.75L107.90 30.35M97.85 30.30L76.65 28.05L98.25 28.05L97.85 30.30M97 35.10L75.80 32.85L97.40 32.85L97 35.10M96.15 39.90L74.95 37.65L96.55 37.65L96.15 39.90M95.30 44.75L74.10 42.50L95.70 42.50L95.30 44.75ZM132.40 44.90L143.50 18.45L155.90 18.45L157.85 44.90L149.10 44.90L148.90 40.85L142.60 40.85L141.05 44.90L132.40 44.90M140.95 20.60L120.55 18.45L141.85 18.45L140.95 20.60M138.95 25.45L118.50 23.25L139.85 23.25L138.95 25.45M145.25 33.70L148.90 33.70L148.90 26.10L148.20 26.10L145.25 33.70M136.90 30.25L116.45 28.05L137.85 28.05L136.90 30.25M134.90 35.05L114.40 32.85L135.80 32.85L134.90 35.05M132.85 39.85L112.35 37.65L133.80 37.65L132.85 39.85M130.80 44.70L110.30 42.50L131.75 42.50L130.80 44.70Z"/></g><g transform="translate(0, 27.959999999999997)"><path d="M22.85 44.90L28.90 18.45L39.75 18.45L40.50 30.85L40.70 30.85L45.75 18.45L56.60 18.45L53.40 44.90L44.80 44.90L46.15 34.15L45.90 34.15L41.40 44.90L34.80 44.90L34.05 34.15L33.80 34.15L31.40 44.90L22.85 44.90M26.70 20.70L5.75 18.45L27.25 18.45L26.70 20.70M25.60 25.50L4.60 23.25L26.10 23.25L25.60 25.50M24.45 30.30L3.45 28.05L25 28.05L24.45 30.30M23.45 35.10L2.30 32.85L23.95 32.85L23.45 35.10M22.30 39.90L1.15 37.65L22.85 37.65L22.30 39.90M21.20 44.75L0 42.50L21.70 42.50L21.20 44.75ZM67.30 44.90L78.40 18.45L90.80 18.45L92.75 44.90L84 44.90L83.80 40.85L77.50 40.85L75.95 44.90L67.30 44.90M75.85 20.60L55.45 18.45L76.75 18.45L75.85 20.60M73.85 25.45L53.40 23.25L74.75 23.25L73.85 25.45M80.15 33.70L83.80 33.70L83.80 26.10L83.10 26.10L80.15 33.70M71.80 30.25L51.35 28.05L72.75 28.05L71.80 30.25M69.80 35.05L49.30 32.85L70.70 32.85L69.80 35.05M67.75 39.85L47.25 37.65L68.70 37.65L67.75 39.85M65.70 44.70L45.20 42.50L66.65 42.50L65.70 44.70ZM105.80 44.90L110.40 18.45L123.10 18.45Q125.90 18.45 127.47 19.30Q129.05 20.15 129.72 21.65Q130.40 23.15 130.40 25.05Q130.40 26.55 129.97 28.70Q129.55 30.85 128.43 32.88Q127.30 34.90 125.15 36.10L128 44.90L118.65 44.90L116.75 37.20L115.55 37.20L114.20 44.90L105.80 44.90M108.40 20.70L87.20 18.45L108.75 18.45L108.40 20.70M107.55 25.50L86.35 23.25L107.95 23.25L107.55 25.50M116.75 30.35L118.35 30.35Q119.35 30.35 120.07 30.07Q120.80 29.80 120.95 28.85L121.25 27.10Q121.25 27.00 121.27 26.92Q121.30 26.85 121.30 26.80Q121.30 26.10 120.57 25.92Q119.85 25.75 118.65 25.75L117.55 25.75L116.75 30.35M106.70 30.30L85.50 28.05L107.10 28.05L106.70 30.30M105.85 35.10L84.65 32.85L106.25 32.85L105.85 35.10M105 39.90L83.80 37.65L105.40 37.65L105 39.90M104.15 44.75L82.95 42.50L104.55 42.50L104.15 44.75ZM141.85 44.90L146.45 18.45L154.90 18.45L153.45 26.55L153.70 26.55L158.85 18.45L168 18.45L159.60 31.40L163.55 44.90L154.40 44.90L152.05 36.25L151.75 36.25L150.25 44.90L141.85 44.90M144.45 20.70L123.25 18.45L144.80 18.45L144.45 20.70M143.60 25.50L122.40 23.25L144 23.25L143.60 25.50M142.75 30.30L121.55 28.05L143.15 28.05L142.75 30.30M141.90 35.10L120.70 32.85L142.30 32.85L141.90 35.10M141.05 39.90L119.85 37.65L141.45 37.65L141.05 39.90M140.20 44.75L119 42.50L140.60 42.50L140.20 44.75ZM176.70 44.90L181.30 18.45L198.90 18.45L196.55 25.95L188.40 25.95L187.80 29.35L195.30 29.35L194.45 34.15L187 34.15L186.40 37.55L195.65 37.55L194.35 44.90L176.70 44.90M179.30 20.70L158.10 18.45L179.65 18.45L179.30 20.70M178.45 25.50L157.25 23.25L178.85 23.25L178.45 25.50M177.60 30.30L156.40 28.05L178 28.05L177.60 30.30M176.75 35.10L155.55 32.85L177.15 32.85L176.75 35.10M175.90 39.90L154.70 37.65L176.30 37.65L175.90 39.90M175.05 44.75L153.85 42.50L175.45 42.50L175.05 44.75ZM213.15 44.90L216.45 25.95L210.90 25.95L212.25 18.45L232 18.45L230.65 25.95L225.25 25.95L221.95 44.90L213.15 44.90M210.25 20.70L189.05 18.45L210.60 18.45L210.25 20.70M209.40 25.50L188.20 23.25L209.80 23.25L209.40 25.50M214.20 30.30L193 28.05L214.60 28.05L214.20 30.30M213.35 35.10L192.15 32.85L213.75 32.85L213.35 35.10M212.50 39.90L191.30 37.65L212.90 37.65L212.50 39.90M211.65 44.75L190.45 42.50L212.05 42.50L211.65 44.75Z"/></g></g></svg>